# File created by Blade
# Date/Time:  Mon Sep 22 17:38:34 2014
# Frame Rate: 120.000 fps
#------------------------------------------------------
:FULLY-SPECIFIED
:DEGREES
4070
root 2.009281 37.741633 5.800177 6.066788 27.720160 20.720532
RightUpLeg 1.683869 -13.556965 -12.231895
RightLeg 15.291078 -0.000000 -0.000000
RightFoot -27.948438 -26.664256 21.412580
RightToeBase 8.788441 -0.000000 -0.000000
LeftUpLeg 1.955315 23.583480 -0.957728
LeftLeg 53.349167 -0.000000 -0.000000
LeftFoot 16.601381 22.496678 -40.496809
LeftToeBase -11.380126 -0.000000 0.000000
Spine 12.226551 1.922620 -3.236599
RightShoulder 1.187667 -19.207150 -15.664418
RightArm 22.152384 14.898892 52.444797
RightForeArm 8.071259 -0.000000 108.590941
RightHand 3.993993 -0.000000 -34.007458
RightHandThumb1 -24.326973 -0.000000 -32.862282
LeftShoulder -25.571185 35.677901 -11.400988
LeftArm 31.749392 -6.665997 -66.938011
LeftForeArm 36.895660 0.000000 88.562776
LeftHand -26.018751 -0.000000 10.405446
LeftHandThumb1 -26.253704 0.000000 33.147579
Head 13.393212 -19.127431 -10.579994
4071
root 2.030941 37.750441 5.815245 5.814367 27.065000 20.524975
RightUpLeg 1.778669 -13.281376 -12.207420
RightLeg 15.076758 -0.000000 -0.000000
RightFoot -27.687011 -26.443922 21.167479
RightToeBase 8.895456 -0.000000 -0.000000
LeftUpLeg 2.423690 22.658913 -1.156046
LeftLeg 52.737170 -0.000000 -0.000000
LeftFoot 16.167390 22.787580 -40.192314
LeftToeBase -11.502441 -0.000000 0.000000
Spine 12.187648 2.322256 -3.205288
RightShoulder 1.219183 -19.193907 -15.725660
RightArm 22.538647 14.495767 52.499680
RightForeArm 8.065733 -0.000000 108.344955
RightHand 3.975917 -0.000000 -34.050153
RightHandThumb1 -24.326973 -0.000000 -32.862282
LeftShoulder -25.694722 35.726766 -11.613341
LeftArm 31.639529 -6.716305 -67.119192
LeftForeArm 36.673481 -0.000000 88.879733
LeftHand -26.220482 -0.000000 10.231701
LeftHandThumb1 -26.253704 0.000000 33.147579
Head 13.410696 -18.787738 -10.801094
4072
root 2.058927 37.761435 5.827964 5.601143 26.458658 20.397999
RightUpLeg 1.868527 -13.105713 -12.254575
RightLeg 14.896116 -0.000000 -0.000000
RightFoot -27.423794 -26.101080 20.996512
RightToeBase 8.840477 -0.000000 -0.000000
LeftUpLeg 2.869142 21.679479 -1.442412
LeftLeg 52.151827 -0.000000 -0.000000
LeftFoot 15.506876 23.121389 -39.870348
LeftToeBase -10.649940 -0.000000 0.000000
Spine 12.134733 2.628146 -3.227362
RightShoulder 1.270404 -19.271830 -15.826077
RightArm 23.009445 14.093137 52.606665
RightForeArm 7.891337 -0.000000 108.096139
RightHand 3.926296 -0.000000 -34.109547
RightHandThumb1 -24.326973 -0.000000 -32.862282
LeftShoulder -25.795089 35.738018 -11.789343
LeftArm 31.443899 -6.745928 -67.301217
LeftForeArm 36.404315 0.000000 89.194249
LeftHand -26.432326 -0.000000 10.065112
LeftHandThumb1 -26.253704 0.000000 33.147579
Head 13.417608 -18.394479 -11.000152
4073
root 2.081579 37.772315 5.843144 5.375664 25.812533 20.237205
RightUpLeg 1.969120 -12.843591 -12.253199
RightLeg 14.659515 -0.000000 -0.000000
RightFoot -27.138252 -25.839776 20.776650
RightToeBase 8.847317 -0.000000 -0.000000
LeftUpLeg 3.312888 20.809296 -1.687734
LeftLeg 51.580876 -0.000000 -0.000000
LeftFoot 14.765439 23.578197 -39.665380
LeftToeBase -10.776587 -0.000000 0.000000
Spine 12.088724 2.940960 -3.251574
RightShoulder 1.369042 -19.177797 -15.904494
RightArm 23.330737 13.633390 52.657239
RightForeArm 7.876222 -0.000000 107.852939
RightHand 3.917740 0.000000 -34.096330
RightHandThumb1 -24.326973 -0.000000 -32.862282
LeftShoulder -25.929468 35.758906 -11.976192
LeftArm 31.270460 -6.804352 -67.526941
LeftForeArm 36.141296 0.000000 89.474907
LeftHand -26.169416 -0.000000 9.963541
LeftHandThumb1 -26.253704 0.000000 33.147579
Head 13.376926 -18.018272 -11.154575
4074
root 2.107386 37.784316 5.853286 5.157538 25.223363 20.101988
RightUpLeg 2.066441 -12.645876 -12.280165
RightLeg 14.465970 -0.000000 -0.000000
RightFoot -26.873533 -25.541781 20.605821
RightToeBase 8.873717 -0.000000 -0.000000
LeftUpLeg 3.728654 19.870767 -1.984119
LeftLeg 51.062481 -0.000000 -0.000000
LeftFoot 13.793973 23.969540 -39.446223
LeftToeBase -10.550921 -0.000000 0.000000
Spine 12.069912 3.202187 -3.264416
RightShoulder 1.389573 -19.106554 -15.992831
RightArm 23.748024 13.137976 52.759465
RightForeArm 7.809383 -0.000000 107.585755
RightHand 3.931246 -0.000000 -34.113095
RightHandThumb1 -24.326973 -0.000000 -32.862282
LeftShoulder -26.049288 35.827155 -12.190006
LeftArm 31.166327 -6.834696 -67.707379
LeftForeArm 36.010886 -0.000000 89.751104
LeftHand -26.281057 -0.000000 9.754241
LeftHandThumb1 -26.253704 0.000000 33.147579
Head 13.301723 -17.699793 -11.335751
4075
root 2.126153 37.794163 5.863816 4.944746 24.591088 19.939142
RightUpLeg 2.139321 -12.282440 -12.243158
RightLeg 14.243099 -0.000000 -0.000000
RightFoot -26.610525 -25.394867 20.398981
RightToeBase 8.877970 -0.000000 -0.000000
LeftUpLeg 4.119504 19.021830 -2.245162
LeftLeg 50.577167 -0.000000 -0.000000
LeftFoot 12.824745 24.334643 -39.099335
LeftToeBase -10.253558 -0.000000 0.000000
Spine 12.039477 3.458265 -3.280279
RightShoulder 1.466569 -19.007675 -16.072699
RightArm 24.128837 12.646994 52.815066
RightForeArm 7.811749 -0.000000 107.344454
RightHand 4.001229 -0.000000 -34.162074
RightHandThumb1 -24.326973 -0.000000 -32.862282
LeftShoulder -26.208281 35.886563 -12.396723
LeftArm 31.078793 -6.850463 -67.905571
LeftForeArm 35.878114 -0.000000 89.980338
LeftHand -26.290459 0.000000 9.586966
LeftHandThumb1 -26.253704 0.000000 33.147579
Head 13.218985 -17.294742 -11.456053
4076
root 2.143672 37.802729 5.870033 4.768420 24.021348 19.780151
RightUpLeg 2.188897 -11.996427 -12.198586
RightLeg 14.025221 -0.000000 -0.000000
RightFoot -26.374664 -25.224528 20.250096
RightToeBase 8.896029 -0.000000 -0.000000
LeftUpLeg 4.436657 18.165186 -2.523612
LeftLeg 50.154431 -0.000000 -0.000000
LeftFoot 11.868290 24.572534 -38.446804
LeftToeBase -10.118577 -0.000000 0.000000
Spine 11.971070 3.663757 -3.293821
RightShoulder 1.540999 -18.911640 -16.172662
RightArm 24.476577 12.183950 52.926384
RightForeArm 7.783401 -0.000000 107.098085
RightHand 4.048099 -0.000000 -34.057642
RightHandThumb1 -24.326973 -0.000000 -32.862282
LeftShoulder -26.315300 35.979346 -12.579939
LeftArm 30.996197 -6.864647 -68.087272
LeftForeArm 35.761156 0.000000 90.216125
LeftHand -26.287519 0.000000 9.706879
LeftHandThumb1 -26.253704 0.000000 33.147579
Head 13.131717 -16.964788 -11.563646
4077
root 2.158745 37.810388 5.874128 4.602130 23.459942 19.594363
RightUpLeg 2.236232 -11.610193 -12.100794
RightLeg 13.764518 -0.000000 -0.000000
RightFoot -26.172221 -25.143048 20.154312
RightToeBase 8.931721 -0.000000 -0.000000
LeftUpLeg 4.706071 17.361889 -2.774408
LeftLeg 49.772180 -0.000000 -0.000000
LeftFoot 10.951738 24.738872 -37.624572
LeftToeBase -10.897526 -0.000000 0.000000
Spine 11.897569 3.831271 -3.275011
RightShoulder 1.609484 -18.800711 -16.271312
RightArm 24.845806 11.690960 52.993262
RightForeArm 7.680858 -0.000000 106.872240
RightHand 4.022699 -0.000000 -33.998984
RightHandThumb1 -24.326973 -0.000000 -32.862282
LeftShoulder -26.481054 36.073938 -12.808136
LeftArm 30.983635 -6.851187 -68.260928
LeftForeArm 35.653147 -0.000000 90.443264
LeftHand -26.396856 -0.000000 9.346597
LeftHandThumb1 -26.253704 0.000000 33.147579
Head 13.010316 -16.587967 -11.677942
4078
root 2.168467 37.816793 5.876202 4.447814 22.885489 19.420282
RightUpLeg 2.256067 -11.208006 -12.002524
RightLeg 13.524804 -0.000000 -0.000000
RightFoot -25.939540 -25.112788 19.952415
RightToeBase 8.956778 -0.000000 -0.000000
LeftUpLeg 4.954290 16.576532 -3.031450
LeftLeg 49.418701 -0.000000 -0.000000
LeftFoot 9.778726 24.868317 -37.214448
LeftToeBase -10.583553 -0.000000 0.000000
Spine 11.828593 4.009382 -3.289623
RightShoulder 1.695771 -18.721750 -16.351675
RightArm 25.226609 11.256534 53.087068
RightForeArm 7.693803 -0.000000 106.660152
RightHand 4.059012 0.000000 -33.925947
RightHandThumb1 -24.326973 -0.000000 -32.862282
LeftShoulder -26.622101 36.165726 -13.000070
LeftArm 30.975459 -6.831340 -68.433429
LeftForeArm 35.609852 -0.000000 90.623117
LeftHand -26.200533 -0.000000 9.252367
LeftHandThumb1 -26.253704 0.000000 33.147579
Head 12.886718 -16.229730 -11.731047
4079
root 2.180968 37.823479 5.879990 4.280279 22.371128 19.259129
RightUpLeg 2.341869 -10.842392 -11.923311
RightLeg 13.249393 -0.000000 -0.000000
RightFoot -25.732079 -25.032606 19.836852
RightToeBase 8.984089 -0.000000 -0.000000
LeftUpLeg 5.217145 15.778577 -3.276023
LeftLeg 49.074085 -0.000000 -0.000000
LeftFoot 8.862882 24.915530 -36.445035
LeftToeBase -10.638516 -0.000000 0.000000
Spine 11.791600 4.140146 -3.309210
RightShoulder 1.759493 -18.597164 -16.407379
RightArm 25.544053 10.811875 53.144878
RightForeArm 7.651756 -0.000000 106.474349
RightHand 4.068843 -0.000000 -33.871977
RightHandThumb1 -24.326973 -0.000000 -32.862282
LeftShoulder -26.740632 36.223772 -13.173227
LeftArm 30.959837 -6.772552 -68.528363
LeftForeArm 35.583698 -0.000000 90.796828
LeftHand -25.887604 -0.000000 9.282839
LeftHandThumb1 -26.253704 0.000000 33.147579
Head 12.731783 -15.911896 -11.767394
